<svg xmlns="http://www.w3.org/2000/svg" width="25.988" height="20.213" viewBox="0 0 25.988 20.213">
  <g id="cc-visa" transform="translate(0 -32)">
    <g id="Grupo_17" data-name="Grupo 17" transform="translate(0 32)">
      <path id="Trazado_8" data-name="Trazado 8" d="M21.21,40.992s.343,1.678.42,2.03H20.123c.149-.4.722-1.963.722-1.963s.149-.411.239-.672l.126.6Zm4.778-6.826V50.047a2.166,2.166,0,0,1-2.166,2.166H2.166A2.166,2.166,0,0,1,0,50.047V34.166A2.166,2.166,0,0,1,2.166,32H23.822A2.166,2.166,0,0,1,25.988,34.166ZM6.88,45.5l2.851-7H7.814L6.041,43.279l-.194-.97-.632-3.221a.754.754,0,0,0-.821-.591H1.475l-.032.14a7.16,7.16,0,0,1,1.9.772L4.963,45.5Zm4.259.009L12.277,38.5H10.463L9.33,45.508Zm6.312-2.292c.009-.8-.478-1.408-1.52-1.908-.636-.32-1.024-.537-1.024-.866.009-.3.329-.6,1.042-.6A3.109,3.109,0,0,1,17.3,40.1l.162.077.248-1.516a4.506,4.506,0,0,0-1.624-.3c-1.791,0-3.05.956-3.059,2.319-.014,1.006.9,1.566,1.588,1.9s.938.568.938.871c-.009.469-.568.686-1.087.686a3.614,3.614,0,0,1-1.7-.374l-.239-.113-.253,1.575a5.536,5.536,0,0,0,2.021.374c1.9,0,3.145-.938,3.158-2.391Zm6.371,2.292L22.36,38.5h-1.4a.892.892,0,0,0-.947.582l-2.694,6.429h1.9s.311-.866.379-1.051h2.328c.054.248.217,1.051.217,1.051Z" transform="translate(0 -32)" fill="#f7f7f7"/>
    </g>
  </g>
</svg>
